<?xml version="1.0" encoding="utf-8"?>
<!-- Svg Vector Icons : http://www.onlinewebfonts.com/icon -->
<!DOCTYPE svg PUBLIC "-//W3C//DTD SVG 1.1//EN" "http://www.w3.org/Graphics/SVG/1.1/DTD/svg11.dtd">
<svg version="1.1" xmlns="http://www.w3.org/2000/svg" xmlns:xlink="http://www.w3.org/1999/xlink" x="0px" y="0px" viewBox="0 0 256 256" enable-background="new 0 0 256 256" xml:space="preserve">
<metadata> Svg Vector Icons : http://www.onlinewebfonts.com/icon </metadata>
<g><g><g><path fill="#000000" d="M114.1,10.7C61,17.2,18.8,58.3,11.3,110.9c-2.4,16.6-1.6,31.1,2.6,47.1c3.2,12.2,8.6,24.5,15.5,34.8c5.3,8,8.9,12.3,15.7,19.1c13.1,13,28.4,22.4,46.3,28.2c12.2,4,23,5.7,36.8,5.7c14,0,24.1-1.6,37.3-6c42.3-14.1,72.8-50.6,79.6-95.4c1.2-7.9,1.2-25.3,0-33c-3.9-25.3-14.9-47.7-32.1-65.6c-19-19.8-44.9-32.4-72.7-35.5C134.1,9.9,120.5,10,114.1,10.7z M152.8,50.5c27.7,5.6,47.3,23.7,53.8,49.5c1.9,7.6,2.4,11.8,2.4,20.8c0,9-0.4,12.7-2.4,20c-4.2,16-14.3,27.7-26.5,30.8c-3.2,0.8-10.8,0.9-14,0.2c-5.2-1.2-11.1-5.4-13.6-9.7c-0.7-1.1-1.5-2.1-1.8-2.3c-0.3-0.1-1.5,0.6-2.5,1.7c-4.8,4.9-11.5,8.8-17.6,10.2c-2.8,0.6-5.1,0.7-10.5,0.6c-6.3-0.2-7.4-0.4-11.4-1.8c-2.5-0.8-5.7-2.3-7.2-3.2c-8.1-4.9-13.7-13.1-15.9-23.2c-1.2-5.6-1.1-17.1,0.2-23c1.9-8.1,5.3-14.5,10.9-20.5c12.1-12.8,30-16.8,55.9-12.3c6.2,1,15,3.2,15.5,3.7c0.1,0.2-0.2,10.9-0.9,23.8c-1.5,29.7-1.3,32.8,1.8,36.3c2.6,3,6.8,2.8,10.2-0.3c4-3.8,6.8-11.6,7.8-22.5c3.8-39.3-20.6-64.8-59-61.5c-3.7,0.3-8.2,0.9-10.1,1.2c-25.6,5.5-42.2,23.2-47.3,50.3c-1.4,7.5-1.5,23.1-0.2,30.1c1.5,8.2,4.6,16.1,8.4,21.8c2.3,3.5,8.4,9.2,12.1,11.7c15.4,9.9,39.6,11.5,67.5,4.5c4-1,9.2-2.5,11.5-3.2l4.1-1.4l-0.1,9.6l-0.1,9.6l-4,1.6c-5.2,2-16.8,5-23.5,6c-7,1-23.8,1.5-31.2,0.8c-20.5-1.9-36.1-8.7-48.3-20.9c-12.1-12.2-18.4-27.3-19.4-47C46,116,53.5,93,69.1,75.5c9.7-10.9,24.9-19.9,39.7-23.7C122.4,48.4,139.6,47.8,152.8,50.5z"/><path fill="#000000" d="M128.7,105c-12.6,1.8-20.3,11.4-21,26.1c-0.3,6.7,0.3,11.1,2.3,15c2.5,5.2,6.4,7.5,13.3,8.1c11.6,0.9,18.5-7,20.1-22.9c0.7-6.6,1.6-25.2,1.3-25.5c-0.4-0.4-8.2-1.3-11-1.3C132.5,104.6,130.3,104.8,128.7,105z"/></g></g></g>
</svg>